<svg width="32" height="31" viewBox="0 0 32 31" fill="none" xmlns="http://www.w3.org/2000/svg">
<path d="M19 2.89053C19 4.48694 17.6569 5.78105 16 5.78105C14.3431 5.78105 13 4.48694 13 2.89053C13 1.29411 14.3431 0 16 0C17.6569 0 19 1.29411 19 2.89053ZM16 25.0512C14.3431 25.0512 13 26.3453 13 27.9417C13 29.5382 14.3431 30.8323 16 30.8323C17.6569 30.8323 19 29.5382 19 27.9417C19 26.3453 17.6569 25.0512 16 25.0512ZM29 12.5256C27.3431 12.5256 26 13.8197 26 15.4161C26 17.0126 27.3431 18.3067 29 18.3067C30.6569 18.3067 32 17.0126 32 15.4161C32 13.8197 30.6569 12.5256 29 12.5256ZM6 15.4161C6 13.8197 4.65688 12.5256 3 12.5256C1.34312 12.5256 0 13.8197 0 15.4161C0 17.0126 1.34312 18.3067 3 18.3067C4.65688 18.3067 6 17.0126 6 15.4161ZM6.80762 21.3825C5.15075 21.3825 3.80763 22.6767 3.80763 24.2731C3.80763 25.8695 5.15075 27.1636 6.80762 27.1636C8.4645 27.1636 9.80762 25.8695 9.80762 24.2731C9.80762 22.6767 8.46444 21.3825 6.80762 21.3825ZM25.1924 21.3825C23.5355 21.3825 22.1924 22.6767 22.1924 24.2731C22.1924 25.8695 23.5355 27.1636 25.1924 27.1636C26.8493 27.1636 28.1924 25.8695 28.1924 24.2731C28.1924 22.6767 26.8493 21.3825 25.1924 21.3825ZM6.80762 3.66868C5.15075 3.66868 3.80763 4.96279 3.80763 6.55921C3.80763 8.15562 5.15075 9.44973 6.80762 9.44973C8.4645 9.44973 9.80762 8.15562 9.80762 6.55921C9.80762 4.96279 8.46444 3.66868 6.80762 3.66868Z" fill="#FFC34E"/>
</svg>
