<svg width="35" height="29" viewBox="0 0 35 29" fill="none" xmlns="http://www.w3.org/2000/svg">
<path opacity="0.4" d="M21.0484 16.1085C16.5445 16.1085 12.8933 12.5025 12.8933 8.05427C12.8933 3.60602 16.5445 0 21.0484 0C25.5523 0 29.2034 3.60602 29.2034 8.05427C29.2034 12.5025 25.5523 16.1085 21.0484 16.1085Z" fill="#FFC34E"/>
<path d="M8.01453 24.1761C8.00717 24.0614 8.00717 23.9465 8.01453 23.8318C8.0468 23.4082 8.16701 22.9944 8.36844 22.6138C9.1612 21.0647 11.3838 20.363 13.2383 19.9658C14.5614 19.6903 15.9057 19.5133 17.2587 19.4362L18.6743 19.3303H19.3114H20.1041H22.0011H22.7938H23.4309L24.8465 19.4362C26.1995 19.5133 27.5438 19.6903 28.867 19.9658C30.7214 20.31 32.944 21.025 33.7368 22.6138C33.9382 22.9944 34.0584 23.4082 34.0907 23.8318C34.098 23.9465 34.098 24.0614 34.0907 24.1761C34.0975 24.2907 34.0975 24.4056 34.0907 24.5203C34.0522 24.9403 33.9272 25.3495 33.7226 25.7251C32.9298 27.2742 30.7073 27.9759 28.8528 28.3731C27.5272 28.6356 26.1839 28.8126 24.8324 28.9027L23.4167 28.9954H23.077H22.7797H19.2972H18.9999H18.6602L17.2445 28.9027C15.893 28.8126 14.5497 28.6356 13.2241 28.3731C11.3696 28.0156 9.14704 27.3139 8.35428 25.7251C8.15923 25.3375 8.0394 24.9206 8.00037 24.4938C7.99857 24.3877 8.0033 24.2816 8.01453 24.1761Z" fill="#FFC34E"/>
<path d="M10.6607 15.3387C10.6637 15.2919 10.6637 15.2449 10.6607 15.198C10.6475 15.0248 10.5984 14.8557 10.5161 14.7001C10.192 14.067 9.28357 13.7801 8.52556 13.6178C7.98474 13.5052 7.43525 13.4328 6.88223 13.4013L6.3036 13.358H4.35938L3.78075 13.4013C3.22772 13.4328 2.67823 13.5052 2.13742 13.6178C1.37941 13.7585 0.47095 14.0507 0.146914 14.7001C0.0645816 14.8557 0.0154469 15.0248 0.00225524 15.198C-0.000751746 15.2449 -0.000751746 15.2919 0.00225524 15.3387C-0.000521056 15.3856 -0.000521056 15.4326 0.00225524 15.4794C0.0179942 15.6511 0.0690802 15.8183 0.1527 15.9719C0.476736 16.6051 1.38519 16.8919 2.14321 17.0542C2.68503 17.1616 3.2341 17.2339 3.78653 17.2707L4.36517 17.3086H6.30938L6.88802 17.2707C7.44045 17.2339 7.98952 17.1616 8.53134 17.0542C9.28936 16.9081 10.1978 16.6213 10.5218 15.9719C10.6016 15.8135 10.6506 15.6431 10.6665 15.4686C10.6672 15.4252 10.6653 15.3819 10.6607 15.3387Z" fill="#FFC34E"/>
<path d="M5.3279 20.6607C5.37476 20.6637 5.42175 20.6637 5.46861 20.6607C5.64178 20.6475 5.81089 20.5984 5.96649 20.5161C6.59966 20.192 6.88648 19.2836 7.04883 18.5256C7.16141 17.9847 7.2338 17.4353 7.2653 16.8822L7.30859 16.3036L7.30859 14.3594L7.2653 13.7807C7.2338 13.2277 7.16141 12.6782 7.04883 12.1374C6.90813 11.3794 6.61589 10.471 5.96649 10.1469C5.81089 10.0646 5.64178 10.0154 5.46861 10.0023C5.42175 9.99925 5.37476 9.99925 5.3279 10.0023C5.28104 9.99948 5.23406 9.99948 5.1872 10.0023C5.01551 10.018 4.84828 10.0691 4.69473 10.1527C4.06156 10.4767 3.77474 11.3852 3.61239 12.1432C3.50507 12.685 3.43275 13.2341 3.39592 13.7865L3.35804 14.3652V16.3094L3.39592 16.888C3.43274 17.4405 3.50507 17.9895 3.61239 18.5313C3.7585 19.2894 4.04532 20.1978 4.69473 20.5218C4.85315 20.6016 5.02357 20.6506 5.19802 20.6665C5.24138 20.6672 5.28475 20.6653 5.3279 20.6607Z" fill="#FFC34E"/>
</svg>
